<svg width="38" height="54" viewBox="0 0 38 54" fill="none" xmlns="http://www.w3.org/2000/svg">
    <path d="M14.5 14.2998H37.5" stroke="#194DAB" stroke-width="5.3"/>
    <path d="M13.428 34.78V40H10.296C8.064 40 6.324 39.46 5.076 38.38C3.828 37.276 3.204 35.488 3.204 33.016V25.024H0.756V19.912H3.204V15.016H9.36V19.912H13.392V25.024H9.36V33.088C9.36 33.688 9.504 34.12 9.792 34.384C10.08 34.648 10.56 34.78 11.232 34.78H13.428ZM37.377 19.912L24.777 49.54H18.153L22.761 39.316L14.589 19.912H21.465L26.109 32.476L30.717 19.912H37.377Z" fill="white"/>
    </svg>